<svg id="Layer_1" data-name="Layer 1" xmlns="http://www.w3.org/2000/svg" xmlns:xlink="http://www.w3.org/1999/xlink" viewBox="0 0 117 92"><defs><style>.cls-1{fill:#da4f49;stroke:#da4f49;stroke-width:3px;}.cls-1,.cls-2{stroke-miterlimit:10;}.cls-2{fill:#e3b505;stroke:#e3b505;stroke-width:2px;}.cls-3{fill:#688eff;}</style><symbol id="rz-logo-symbol" data-name="rz-logo-symbol" viewBox="0 0 104.91 88.24"><path class="cls-1" d="M27.24,1.5A26.46,26.46,0,0,0,2,20.39H5.81A22.69,22.69,0,0,1,27.24,4.8,22.86,22.86,0,0,1,49.89,27.87,23.1,23.1,0,0,1,37.1,48.65l-2.52,5.59A26.84,26.84,0,0,0,53.65,28.4,26.66,26.66,0,0,0,27.24,1.5Z"/><polygon class="cls-2" points="36.43 48.78 36.38 48.78 36.38 48.85 13.59 48.15 13.59 48.06 12.78 48.03 12.68 53.13 13.51 53.16 13.51 53.1 36.3 53.8 36.3 53.88 36.34 53.88 36.43 48.78"/><path class="cls-2" d="M51.73,81.54a21,21,0,0,1-.4-4.1c0-.16,0-.34,0-.55a.89.89,0,0,0-.89-.93l-11,0a.9.9,0,0,1-.9-.9l.15-30.76a2.86,2.86,0,0,0-2.87-2.88h0A2.88,2.88,0,0,0,33,44.23l-.13,4.65h0V54h0l0,26.05a.91.91,0,0,0,.9.89H45.14a.9.9,0,0,1,.88.74,23.52,23.52,0,0,0,.61,2.66,17.5,17.5,0,0,0,.86,2.39.91.91,0,0,0,1.17.45l3.49-1.46a.91.91,0,0,0,.47-1.19A14.87,14.87,0,0,1,51.73,81.54Z"/><path class="cls-2" d="M16.43,52.62l0-.21,0-19.83a1.85,1.85,0,0,0-1.83-1.84l-1.86,0a2.18,2.18,0,0,0-2.2,2.16l-.28,47.26a.56.56,0,0,0,.56.56l4.76,0a.55.55,0,0,0,.56-.55l.21-23.27,0-.44Z"/><path class="cls-3" d="M103.12,76.89a23.33,23.33,0,0,1-2.3-1.12q-4-2-10.93-2a93.78,93.78,0,0,0-13.31,1.55q-9.33,1.56-12.72,4.77A7.33,7.33,0,0,1,59,82.14a7.51,7.51,0,0,1-3.19-.84A2.76,2.76,0,0,1,53.9,79c1.44-1.61,3.42-3.71,6-6.31Q80.57,51.43,91.36,37.4,91.18,37,89.89,37a92.72,92.72,0,0,0-10.37,1.17,48.59,48.59,0,0,1-7.44.55q-9.42,0-9.41-5,0-3.81,4.17-3.81a3,3,0,0,1,.88.23,20.49,20.49,0,0,0,8,1.39,109.23,109.23,0,0,0,14-1c.52-.09,1.13-.18,1.84-.28a19.8,19.8,0,0,0,2.34-.37,25.79,25.79,0,0,1,4.22-.46,6.9,6.9,0,0,1,3.19.83,2.45,2.45,0,0,1,1.4,2.7l0,.18q-1,4.05-24.29,29.17-5.61,6.09-6,7.2c.13.31.43.47.92.47s2.57-.42,6.43-1.26q10.83-2.35,16.44-2.36,8.76,0,8.77,5.38A7.13,7.13,0,0,1,103.12,76.89Z"/></symbol><symbol id="rz-codes-logo" data-name="rz-codes-logo" viewBox="0 0 117 92"><use width="104.91" height="88.24" transform="translate(6.73 0.5)" xlink:href="#rz-logo-symbol"/></symbol></defs><title>rz-codes-no-bg-logo</title><use width="117" height="92" xlink:href="#rz-codes-logo"/></svg>