<?xml version="1.0" encoding="utf-8"?>
<!-- Generator: Adobe Illustrator 23.0.1, SVG Export Plug-In . SVG Version: 6.00 Build 0)  -->
<svg version="1.1" id="Layer_1" xmlns="http://www.w3.org/2000/svg" xmlns:xlink="http://www.w3.org/1999/xlink" x="0px" y="0px"
	 viewBox="0 0 110 92" style="enable-background:new 0 0 110 92;" xml:space="preserve">
<style type="text/css">
	.st0{display:none;}
	.st1{display:inline;opacity:0.22;}
	.st2{fill:#DA4F49;}
	.st3{fill:#32CA65;}
	.st4{fill:#688EFF;}
	.st5{fill:#E3B505;}
	.st6{fill:#DA4F49;stroke:#DA4F49;stroke-width:3;stroke-miterlimit:10;}
	.st7{fill:#E3B505;stroke:#E3B505;stroke-width:2;stroke-miterlimit:10;}
</style>
<g>
	<g class="st0">
		<g class="st1">
			<g>
				<rect x="7.97" y="28.11" class="st2" width="19.36" height="3.29"/>
				<rect x="20.48" y="37.15" class="st3" width="19.36" height="3.29"/>
				<rect x="40.64" y="41.67" class="st4" width="19.36" height="3.29"/>
				<rect x="11.6" y="32.63" class="st2" width="11.7" height="3.29"/>
				<rect x="7.57" y="37.15" class="st5" width="11.7" height="3.29"/>
				<rect x="41.04" y="37.15" class="st2" width="11.7" height="3.29"/>
				<rect x="13.22" y="41.67" class="st5" width="11.7" height="3.29"/>
				<rect x="26.93" y="41.67" class="st3" width="11.7" height="3.29"/>
				<rect x="24.91" y="32.63" class="st5" width="11.7" height="3.29"/>
				<rect x="41.45" y="28.11" class="st5" width="11.7" height="3.29"/>
				<rect x="37.82" y="32.63" class="st3" width="11.7" height="3.29"/>
				<rect x="28.54" y="28.11" class="st4" width="11.7" height="3.29"/>
			</g>
			<g>
				<rect x="6.59" y="9.52" class="st2" width="19.36" height="3.29"/>
				<rect x="19.09" y="18.56" class="st3" width="19.36" height="3.29"/>
				<rect x="39.26" y="23.08" class="st4" width="19.36" height="3.29"/>
				<rect x="10.22" y="14.04" class="st2" width="11.7" height="3.29"/>
				<rect x="6.18" y="18.56" class="st5" width="11.7" height="3.29"/>
				<rect x="39.66" y="18.56" class="st2" width="11.7" height="3.29"/>
				<rect x="11.83" y="23.08" class="st5" width="11.7" height="3.29"/>
				<rect x="25.54" y="23.08" class="st3" width="11.7" height="3.29"/>
				<rect x="23.53" y="14.04" class="st5" width="11.7" height="3.29"/>
				<rect x="40.06" y="9.52" class="st5" width="11.7" height="3.29"/>
				<rect x="36.43" y="14.04" class="st3" width="11.7" height="3.29"/>
				<rect x="27.16" y="9.52" class="st4" width="11.7" height="3.29"/>
			</g>
		</g>
		<g class="st1">
			<g>
				<rect x="7.28" y="66.23" class="st2" width="19.36" height="3.29"/>
				<rect x="19.78" y="75.26" class="st3" width="19.36" height="3.29"/>
				<rect x="39.95" y="79.78" class="st4" width="19.36" height="3.29"/>
				<rect x="10.91" y="70.74" class="st2" width="11.7" height="3.29"/>
				<rect x="6.88" y="75.26" class="st5" width="11.7" height="3.29"/>
				<rect x="40.35" y="75.26" class="st2" width="11.7" height="3.29"/>
				<rect x="12.52" y="79.78" class="st5" width="11.7" height="3.29"/>
				<rect x="26.24" y="79.78" class="st3" width="11.7" height="3.29"/>
				<rect x="24.22" y="70.74" class="st5" width="11.7" height="3.29"/>
				<rect x="40.76" y="66.23" class="st5" width="11.7" height="3.29"/>
				<rect x="37.13" y="70.74" class="st3" width="11.7" height="3.29"/>
				<rect x="27.85" y="66.23" class="st4" width="11.7" height="3.29"/>
			</g>
			<g>
				<rect x="5.9" y="47.64" class="st2" width="19.36" height="3.29"/>
				<rect x="18.4" y="56.68" class="st3" width="19.36" height="3.29"/>
				<rect x="38.56" y="61.2" class="st4" width="19.36" height="3.29"/>
				<rect x="9.52" y="52.16" class="st2" width="11.7" height="3.29"/>
				<rect x="5.49" y="56.68" class="st5" width="11.7" height="3.29"/>
				<rect x="38.97" y="56.68" class="st2" width="11.7" height="3.29"/>
				<rect x="11.14" y="61.2" class="st5" width="11.7" height="3.29"/>
				<rect x="24.85" y="61.2" class="st3" width="11.7" height="3.29"/>
				<rect x="22.83" y="52.16" class="st5" width="11.7" height="3.29"/>
				<rect x="39.37" y="47.64" class="st5" width="11.7" height="3.29"/>
				<rect x="35.74" y="52.16" class="st3" width="11.7" height="3.29"/>
				<rect x="26.46" y="47.64" class="st4" width="11.7" height="3.29"/>
			</g>
		</g>
	</g>
</g>
<g>
	<path class="st6" d="M53.97,5C42.12,5,32.1,12.94,28.75,23.89h3.78C35.59,14.82,44.03,8.3,53.97,8.3
		c12.51,0,22.65,10.33,22.65,23.07c0,9.14-5.22,17.05-12.79,20.78l-2.52,5.59c11.01-3.24,19.07-13.58,19.07-25.85
		C80.37,17.04,68.55,5,53.97,5z"/>
	<polygon class="st7" points="63.12,53.84 63.07,53.82 63.04,53.89 42.14,44.79 42.17,44.7 41.43,44.37 39.45,49.07 40.21,49.4 
		40.23,49.35 61.13,58.45 61.1,58.52 61.14,58.54 	"/>
	<path class="st7" d="M78.45,85.04c-0.26-1.35-0.39-2.72-0.39-4.1c0-0.37,0.02-0.86,0.07-1.48l-12.81,0.02l0.16-31.66
		c0.01-1.59-1.28-2.89-2.88-2.89h0c-1.55,0-2.82,1.24-2.87,2.79l-0.13,4.65h0.03v5.12h-0.03l0.04,26.95l12.98-0.02
		c0.18,1.19,0.43,2.33,0.73,3.41c0.31,1.08,0.72,2.13,1.24,3.17l5.13-2.14C79.14,87.67,78.71,86.39,78.45,85.04z"/>
	<path class="st7" d="M43.16,56.12l0.04-0.21l0.03-18.74c0-1.62-1.3-2.93-2.92-2.95h0c-1.63-0.02-2.96,1.3-2.97,2.93L37.07,84.2
		l5.88,0.06l0.21-23.82l0.02-0.44L43.16,56.12z"/>
</g>
</svg>
