<svg id="Layer_1" data-name="Layer 1" xmlns="http://www.w3.org/2000/svg" xmlns:xlink="http://www.w3.org/1999/xlink" viewBox="0 0 117 92"><defs><style>.cls-1{opacity:0.25;}.cls-2,.cls-7{fill:#e3b505;}.cls-3{fill:#688eff;}.cls-4,.cls-6{fill:#da4f49;}.cls-5{fill:#32ca65;}.cls-6{stroke:#da4f49;stroke-width:3px;}.cls-6,.cls-7{stroke-miterlimit:10;}.cls-7{stroke:#e3b505;stroke-width:2px;}</style><symbol id="rz-logo-symbol" data-name="rz-logo-symbol" viewBox="0 0 104.91 88.24"><path class="cls-6" d="M27.24,1.5A26.46,26.46,0,0,0,2,20.39H5.81A22.69,22.69,0,0,1,27.24,4.8,22.86,22.86,0,0,1,49.89,27.87,23.1,23.1,0,0,1,37.1,48.65l-2.52,5.59A26.84,26.84,0,0,0,53.65,28.4,26.66,26.66,0,0,0,27.24,1.5Z"/><polygon class="cls-7" points="36.43 48.78 36.38 48.78 36.38 48.85 13.59 48.15 13.59 48.06 12.78 48.03 12.68 53.13 13.51 53.16 13.51 53.1 36.3 53.8 36.3 53.88 36.34 53.88 36.43 48.78"/><path class="cls-7" d="M51.73,81.54a21,21,0,0,1-.4-4.1c0-.16,0-.34,0-.55a.89.89,0,0,0-.89-.93l-11,0a.9.9,0,0,1-.9-.9l.15-30.76a2.86,2.86,0,0,0-2.87-2.88h0A2.88,2.88,0,0,0,33,44.23l-.13,4.65h0V54h0l0,26.05a.91.91,0,0,0,.9.89H45.14a.9.9,0,0,1,.88.74,23.52,23.52,0,0,0,.61,2.66,17.5,17.5,0,0,0,.86,2.39.91.91,0,0,0,1.17.45l3.49-1.46a.91.91,0,0,0,.47-1.19A14.87,14.87,0,0,1,51.73,81.54Z"/><path class="cls-7" d="M16.43,52.62l0-.21,0-19.83a1.85,1.85,0,0,0-1.83-1.84l-1.86,0a2.18,2.18,0,0,0-2.2,2.16l-.28,47.26a.56.56,0,0,0,.56.56l4.76,0a.55.55,0,0,0,.56-.55l.21-23.27,0-.44Z"/><path class="cls-3" d="M103.12,76.89a23.33,23.33,0,0,1-2.3-1.12q-4-2-10.93-2a93.78,93.78,0,0,0-13.31,1.55q-9.33,1.56-12.72,4.77A7.33,7.33,0,0,1,59,82.14a7.51,7.51,0,0,1-3.19-.84A2.76,2.76,0,0,1,53.9,79c1.44-1.61,3.42-3.71,6-6.31Q80.57,51.43,91.36,37.4,91.18,37,89.89,37a92.72,92.72,0,0,0-10.37,1.17,48.59,48.59,0,0,1-7.44.55q-9.42,0-9.41-5,0-3.81,4.17-3.81a3,3,0,0,1,.88.23,20.49,20.49,0,0,0,8,1.39,109.23,109.23,0,0,0,14-1c.52-.09,1.13-.18,1.84-.28a19.8,19.8,0,0,0,2.34-.37,25.79,25.79,0,0,1,4.22-.46,6.9,6.9,0,0,1,3.19.83,2.45,2.45,0,0,1,1.4,2.7l0,.18q-1,4.05-24.29,29.17-5.61,6.09-6,7.2c.13.31.43.47.92.47s2.57-.42,6.43-1.26q10.83-2.35,16.44-2.36,8.76,0,8.77,5.38A7.13,7.13,0,0,1,103.12,76.89Z"/></symbol><symbol id="rz-codes-logo" data-name="rz-codes-logo" viewBox="0 0 117 92"><g class="cls-1"><rect class="cls-2" x="3" width="13" height="2"/><rect class="cls-3" x="18" width="7" height="2"/><rect class="cls-2" x="34" y="9" width="7" height="2"/><rect class="cls-4" x="27" width="9" height="2"/><rect class="cls-5" x="23" y="6" width="8" height="2"/><rect class="cls-2" x="14" y="6" width="7" height="2"/><rect class="cls-4" x="3" y="6" width="9" height="2"/><rect class="cls-3" x="24" y="9" width="9" height="2"/><rect class="cls-5" x="8" y="9" width="9" height="2"/><rect class="cls-4" x="18" y="9" width="5" height="2"/><rect class="cls-4" x="31" y="3" width="7" height="2"/><rect class="cls-2" x="21" y="3" width="9" height="2"/><rect class="cls-3" x="5" y="3" width="9" height="2"/><rect class="cls-5" x="15" y="3" width="5" height="2"/><rect class="cls-5" x="37" width="5" height="2"/><rect class="cls-3" x="32" y="6" width="5" height="2"/><rect class="cls-2" x="2" y="12" width="13" height="2"/><rect class="cls-3" x="17" y="12" width="7" height="2"/><rect class="cls-2" x="33" y="21" width="7" height="2"/><rect class="cls-4" x="26" y="12" width="9" height="2"/><rect class="cls-5" x="22" y="18" width="8" height="2"/><rect class="cls-2" x="13" y="18" width="7" height="2"/><rect class="cls-4" x="2" y="18" width="9" height="2"/><rect class="cls-3" x="23" y="21" width="9" height="2"/><rect class="cls-5" x="7" y="21" width="9" height="2"/><rect class="cls-4" x="17" y="21" width="5" height="2"/><rect class="cls-4" x="30" y="15" width="7" height="2"/><rect class="cls-2" x="20" y="15" width="9" height="2"/><rect class="cls-3" x="4" y="15" width="9" height="2"/><rect class="cls-5" x="14" y="15" width="5" height="2"/><rect class="cls-5" x="36" y="12" width="5" height="2"/><rect class="cls-3" x="31" y="18" width="5" height="2"/><rect class="cls-2" x="3" y="24" width="13" height="2"/><rect class="cls-3" x="18" y="24" width="7" height="2"/><rect class="cls-2" x="34" y="33" width="7" height="2"/><rect class="cls-4" x="27" y="24" width="9" height="2"/><rect class="cls-5" x="23" y="30" width="8" height="2"/><rect class="cls-2" x="14" y="30" width="7" height="2"/><rect class="cls-4" x="3" y="30" width="9" height="2"/><rect class="cls-3" x="24" y="33" width="9" height="2"/><rect class="cls-5" x="8" y="33" width="9" height="2"/><rect class="cls-4" x="18" y="33" width="5" height="2"/><rect class="cls-4" x="31" y="27" width="7" height="2"/><rect class="cls-2" x="21" y="27" width="9" height="2"/><rect class="cls-3" x="5" y="27" width="9" height="2"/><rect class="cls-5" x="15" y="27" width="5" height="2"/><rect class="cls-5" x="37" y="24" width="5" height="2"/><rect class="cls-3" x="32" y="30" width="5" height="2"/><rect class="cls-2" x="2" y="36" width="13" height="2"/><rect class="cls-3" x="17" y="36" width="7" height="2"/><rect class="cls-2" x="33" y="45" width="7" height="2"/><rect class="cls-4" x="26" y="36" width="9" height="2"/><rect class="cls-5" x="22" y="42" width="8" height="2"/><rect class="cls-2" x="13" y="42" width="7" height="2"/><rect class="cls-4" x="2" y="42" width="9" height="2"/><rect class="cls-3" x="23" y="45" width="9" height="2"/><rect class="cls-5" x="7" y="45" width="9" height="2"/><rect class="cls-4" x="17" y="45" width="5" height="2"/><rect class="cls-4" x="30" y="39" width="7" height="2"/><rect class="cls-2" x="20" y="39" width="9" height="2"/><rect class="cls-3" x="4" y="39" width="9" height="2"/><rect class="cls-5" x="14" y="39" width="5" height="2"/><rect class="cls-5" x="36" y="36" width="5" height="2"/><rect class="cls-3" x="31" y="42" width="5" height="2"/><rect class="cls-2" x="40" y="42" width="13" height="2"/><rect class="cls-3" x="55" y="42" width="7" height="2"/><rect class="cls-2" x="71" y="51" width="7" height="2"/><rect class="cls-4" x="64" y="42" width="9" height="2"/><rect class="cls-5" x="60" y="48" width="8" height="2"/><rect class="cls-2" x="51" y="48" width="7" height="2"/><rect class="cls-4" x="40" y="48" width="9" height="2"/><rect class="cls-3" x="61" y="51" width="9" height="2"/><rect class="cls-5" x="45" y="51" width="9" height="2"/><rect class="cls-4" x="55" y="51" width="5" height="2"/><rect class="cls-4" x="68" y="45" width="7" height="2"/><rect class="cls-2" x="58" y="45" width="9" height="2"/><rect class="cls-3" x="42" y="45" width="9" height="2"/><rect class="cls-5" x="52" y="45" width="5" height="2"/><rect class="cls-5" x="74" y="42" width="5" height="2"/><rect class="cls-3" x="69" y="48" width="5" height="2"/><rect class="cls-2" x="39" y="54" width="13" height="2"/><rect class="cls-3" x="54" y="54" width="7" height="2"/><rect class="cls-2" x="70" y="63" width="7" height="2"/><rect class="cls-4" x="63" y="54" width="9" height="2"/><rect class="cls-5" x="59" y="60" width="8" height="2"/><rect class="cls-2" x="50" y="60" width="7" height="2"/><rect class="cls-4" x="39" y="60" width="9" height="2"/><rect class="cls-3" x="60" y="63" width="9" height="2"/><rect class="cls-5" x="44" y="63" width="9" height="2"/><rect class="cls-4" x="54" y="63" width="5" height="2"/><rect class="cls-4" x="67" y="57" width="7" height="2"/><rect class="cls-2" x="57" y="57" width="9" height="2"/><rect class="cls-3" x="41" y="57" width="9" height="2"/><rect class="cls-5" x="51" y="57" width="5" height="2"/><rect class="cls-5" x="73" y="54" width="5" height="2"/><rect class="cls-3" x="68" y="60" width="5" height="2"/><rect class="cls-2" x="40" y="66" width="13" height="2"/><rect class="cls-3" x="55" y="66" width="7" height="2"/><rect class="cls-2" x="71" y="75" width="7" height="2"/><rect class="cls-4" x="64" y="66" width="9" height="2"/><rect class="cls-5" x="60" y="72" width="8" height="2"/><rect class="cls-2" x="51" y="72" width="7" height="2"/><rect class="cls-4" x="40" y="72" width="9" height="2"/><rect class="cls-3" x="61" y="75" width="9" height="2"/><rect class="cls-5" x="45" y="75" width="9" height="2"/><rect class="cls-4" x="55" y="75" width="5" height="2"/><rect class="cls-4" x="68" y="69" width="7" height="2"/><rect class="cls-2" x="58" y="69" width="9" height="2"/><rect class="cls-3" x="42" y="69" width="9" height="2"/><rect class="cls-5" x="52" y="69" width="5" height="2"/><rect class="cls-5" x="74" y="66" width="5" height="2"/><rect class="cls-3" x="69" y="72" width="5" height="2"/><rect class="cls-2" x="39" y="78" width="13" height="2"/><rect class="cls-3" x="54" y="78" width="7" height="2"/><rect class="cls-2" x="70" y="87" width="7" height="2"/><rect class="cls-4" x="63" y="78" width="9" height="2"/><rect class="cls-5" x="59" y="84" width="8" height="2"/><rect class="cls-2" x="50" y="84" width="7" height="2"/><rect class="cls-4" x="39" y="84" width="9" height="2"/><rect class="cls-3" x="60" y="87" width="9" height="2"/><rect class="cls-5" x="44" y="87" width="9" height="2"/><rect class="cls-4" x="54" y="87" width="5" height="2"/><rect class="cls-4" x="67" y="81" width="7" height="2"/><rect class="cls-2" x="57" y="81" width="9" height="2"/><rect class="cls-3" x="41" y="81" width="9" height="2"/><rect class="cls-5" x="51" y="81" width="5" height="2"/><rect class="cls-5" x="73" y="78" width="5" height="2"/><rect class="cls-3" x="68" y="84" width="5" height="2"/><rect class="cls-2" x="26" y="49" width="13" height="2"/><rect class="cls-3" x="17" y="49" width="7" height="2"/><rect class="cls-2" x="2" y="60" width="7" height="2"/><rect class="cls-4" x="6" y="49" width="9" height="2"/><rect class="cls-5" x="12" y="57" width="8" height="2"/><rect class="cls-2" x="22" y="57" width="7" height="2"/><rect class="cls-4" x="31" y="57" width="9" height="2"/><rect class="cls-3" x="10" y="60" width="9" height="2"/><rect class="cls-5" x="26" y="60" width="9" height="2"/><rect class="cls-4" x="20" y="60" width="5" height="2"/><rect class="cls-4" x="5" y="53" width="7" height="2"/><rect class="cls-2" x="13" y="53" width="9" height="2"/><rect class="cls-3" x="29" y="53" width="9" height="2"/><rect class="cls-5" x="23" y="53" width="5" height="2"/><rect class="cls-5" y="49" width="5" height="2"/><rect class="cls-3" x="6" y="57" width="5" height="2"/><rect class="cls-2" x="28" y="63" width="13" height="2"/><rect class="cls-3" x="19" y="63" width="7" height="2"/><rect class="cls-2" x="3" y="72" width="7" height="2"/><rect class="cls-4" x="8" y="63" width="9" height="2"/><rect class="cls-5" x="13" y="69" width="8" height="2"/><rect class="cls-2" x="23" y="69" width="7" height="2"/><rect class="cls-4" x="32" y="69" width="9" height="2"/><rect class="cls-3" x="11" y="72" width="9" height="2"/><rect class="cls-5" x="27" y="72" width="9" height="2"/><rect class="cls-4" x="21" y="72" width="5" height="2"/><rect class="cls-4" x="6" y="66" width="7" height="2"/><rect class="cls-2" x="14" y="66" width="9" height="2"/><rect class="cls-3" x="30" y="66" width="9" height="2"/><rect class="cls-5" x="24" y="66" width="5" height="2"/><rect class="cls-5" x="2" y="63" width="5" height="2"/><rect class="cls-3" x="7" y="69" width="5" height="2"/><rect class="cls-2" x="27" y="75" width="13" height="2"/><rect class="cls-3" x="18" y="75" width="7" height="2"/><rect class="cls-2" x="2" y="84" width="7" height="2"/><rect class="cls-4" x="7" y="75" width="9" height="2"/><rect class="cls-5" x="12" y="81" width="8" height="2"/><rect class="cls-2" x="22" y="81" width="7" height="2"/><rect class="cls-4" x="31" y="81" width="9" height="2"/><rect class="cls-3" x="10" y="84" width="9" height="2"/><rect class="cls-5" x="26" y="84" width="9" height="2"/><rect class="cls-4" x="20" y="84" width="5" height="2"/><rect class="cls-4" x="5" y="78" width="7" height="2"/><rect class="cls-2" x="13" y="78" width="9" height="2"/><rect class="cls-3" x="29" y="78" width="9" height="2"/><rect class="cls-5" x="23" y="78" width="5" height="2"/><rect class="cls-5" x="1" y="75" width="5" height="2"/><rect class="cls-3" x="6" y="81" width="5" height="2"/><rect class="cls-2" x="28" y="87" width="13" height="2"/><rect class="cls-3" x="19" y="87" width="7" height="2"/><rect class="cls-4" x="8" y="87" width="9" height="2"/><rect class="cls-4" x="6" y="90" width="7" height="2"/><rect class="cls-2" x="14" y="90" width="9" height="2"/><rect class="cls-3" x="30" y="90" width="9" height="2"/><rect class="cls-5" x="24" y="90" width="5" height="2"/><rect class="cls-5" x="2" y="87" width="5" height="2"/><rect class="cls-2" x="39" y="3" width="7" height="2"/><rect class="cls-5" x="49" width="8" height="2"/><rect class="cls-2" x="59" width="7" height="2"/><rect class="cls-4" x="68" width="9" height="2"/><rect class="cls-3" x="47" y="3" width="9" height="2"/><rect class="cls-5" x="63" y="3" width="9" height="2"/><rect class="cls-4" x="57" y="3" width="5" height="2"/><rect class="cls-3" x="43" width="5" height="2"/><rect class="cls-2" x="65" y="6" width="13" height="2"/><rect class="cls-3" x="56" y="6" width="7" height="2"/><rect class="cls-2" x="40" y="15" width="7" height="2"/><rect class="cls-4" x="45" y="6" width="9" height="2"/><rect class="cls-5" x="50" y="12" width="8" height="2"/><rect class="cls-2" x="60" y="12" width="7" height="2"/><rect class="cls-4" x="69" y="12" width="6" height="2"/><rect class="cls-3" x="48" y="15" width="9" height="2"/><rect class="cls-5" x="64" y="15" width="9" height="2"/><rect class="cls-4" x="58" y="15" width="5" height="2"/><rect class="cls-4" x="43" y="9" width="7" height="2"/><rect class="cls-2" x="51" y="9" width="9" height="2"/><rect class="cls-3" x="67" y="9" width="9" height="2"/><rect class="cls-5" x="61" y="9" width="5" height="2"/><rect class="cls-5" x="39" y="6" width="5" height="2"/><rect class="cls-3" x="44" y="12" width="5" height="2"/><rect class="cls-2" x="64" y="18" width="13" height="2"/><rect class="cls-3" x="55" y="18" width="7" height="2"/><rect class="cls-2" x="39" y="27" width="7" height="2"/><rect class="cls-4" x="44" y="18" width="9" height="2"/><rect class="cls-5" x="49" y="24" width="8" height="2"/><rect class="cls-2" x="59" y="24" width="7" height="2"/><rect class="cls-4" x="68" y="24" width="8" height="2"/><rect class="cls-3" x="47" y="27" width="9" height="2"/><rect class="cls-5" x="63" y="27" width="9" height="2"/><rect class="cls-4" x="57" y="27" width="5" height="2"/><rect class="cls-4" x="42" y="21" width="7" height="2"/><rect class="cls-2" x="50" y="21" width="9" height="2"/><rect class="cls-3" x="66" y="21" width="9" height="2"/><rect class="cls-5" x="60" y="21" width="5" height="2"/><rect class="cls-5" x="38" y="18" width="5" height="2"/><rect class="cls-3" x="43" y="24" width="5" height="2"/><rect class="cls-2" x="65" y="30" width="13" height="2"/><rect class="cls-3" x="56" y="30" width="7" height="2"/><rect class="cls-2" x="40" y="39" width="7" height="2"/><rect class="cls-4" x="45" y="30" width="9" height="2"/><rect class="cls-5" x="50" y="36" width="8" height="2"/><rect class="cls-2" x="60" y="36" width="7" height="2"/><rect class="cls-4" x="69" y="36" width="6" height="2"/><rect class="cls-3" x="48" y="39" width="9" height="2"/><rect class="cls-5" x="64" y="39" width="9" height="2"/><rect class="cls-4" x="58" y="39" width="5" height="2"/><rect class="cls-4" x="43" y="33" width="7" height="2"/><rect class="cls-2" x="51" y="33" width="9" height="2"/><rect class="cls-3" x="67" y="33" width="9" height="2"/><rect class="cls-5" x="61" y="33" width="5" height="2"/><rect class="cls-5" x="39" y="30" width="5" height="2"/><rect class="cls-3" x="44" y="36" width="5" height="2"/><rect class="cls-2" x="102" y="60" width="13" height="2"/><rect class="cls-3" x="93" y="60" width="7" height="2"/><rect class="cls-2" x="77" y="69" width="7" height="2"/><rect class="cls-4" x="82" y="60" width="9" height="2"/><rect class="cls-5" x="87" y="66" width="8" height="2"/><rect class="cls-2" x="97" y="66" width="7" height="2"/><rect class="cls-4" x="106" y="66" width="9" height="2"/><rect class="cls-3" x="85" y="69" width="9" height="2"/><rect class="cls-5" x="101" y="69" width="9" height="2"/><rect class="cls-4" x="95" y="69" width="5" height="2"/><rect class="cls-4" x="80" y="63" width="7" height="2"/><rect class="cls-2" x="88" y="63" width="9" height="2"/><rect class="cls-3" x="104" y="63" width="9" height="2"/><rect class="cls-5" x="98" y="63" width="5" height="2"/><rect class="cls-5" x="76" y="60" width="5" height="2"/><rect class="cls-3" x="81" y="66" width="5" height="2"/><rect class="cls-2" x="103" y="72" width="13" height="2"/><rect class="cls-3" x="94" y="72" width="7" height="2"/><rect class="cls-2" x="78" y="81" width="7" height="2"/><rect class="cls-4" x="83" y="72" width="9" height="2"/><rect class="cls-5" x="88" y="78" width="8" height="2"/><rect class="cls-2" x="98" y="78" width="7" height="2"/><rect class="cls-4" x="107" y="78" width="9" height="2"/><rect class="cls-3" x="86" y="81" width="9" height="2"/><rect class="cls-5" x="102" y="81" width="9" height="2"/><rect class="cls-4" x="96" y="81" width="5" height="2"/><rect class="cls-4" x="81" y="75" width="7" height="2"/><rect class="cls-2" x="89" y="75" width="9" height="2"/><rect class="cls-3" x="105" y="75" width="9" height="2"/><rect class="cls-5" x="99" y="75" width="5" height="2"/><rect class="cls-5" x="77" y="72" width="5" height="2"/><rect class="cls-3" x="82" y="78" width="5" height="2"/><rect class="cls-2" x="102" y="84" width="13" height="2"/><rect class="cls-3" x="93" y="84" width="7" height="2"/><rect class="cls-4" x="82" y="84" width="9" height="2"/><rect class="cls-5" x="87" y="90" width="8" height="2"/><rect class="cls-2" x="97" y="90" width="7" height="2"/><rect class="cls-4" x="106" y="90" width="9" height="2"/><rect class="cls-4" x="80" y="87" width="7" height="2"/><rect class="cls-2" x="88" y="87" width="9" height="2"/><rect class="cls-3" x="104" y="87" width="9" height="2"/><rect class="cls-5" x="98" y="87" width="5" height="2"/><rect class="cls-5" x="76" y="84" width="5" height="2"/><rect class="cls-3" x="81" y="90" width="5" height="2"/><rect class="cls-2" x="101" y="12" width="13" height="2"/><rect class="cls-3" x="92" y="12" width="7" height="2"/><rect class="cls-2" x="76" y="21" width="7" height="2"/><rect class="cls-4" x="81" y="12" width="9" height="2"/><rect class="cls-5" x="86" y="18" width="8" height="2"/><rect class="cls-2" x="96" y="18" width="7" height="2"/><rect class="cls-4" x="105" y="18" width="9" height="2"/><rect class="cls-3" x="84" y="21" width="9" height="2"/><rect class="cls-5" x="100" y="21" width="9" height="2"/><rect class="cls-4" x="94" y="21" width="5" height="2"/><rect class="cls-4" x="79" y="15" width="7" height="2"/><rect class="cls-2" x="87" y="15" width="9" height="2"/><rect class="cls-3" x="103" y="15" width="9" height="2"/><rect class="cls-5" x="97" y="15" width="5" height="2"/><polygon class="cls-5" points="75 12 75 14 78 14 80 14 80 12 78 12 75 12"/><rect class="cls-3" x="80" y="18" width="5" height="2"/><rect class="cls-2" x="102" y="24" width="13" height="2"/><rect class="cls-3" x="93" y="24" width="7" height="2"/><rect class="cls-2" x="77" y="33" width="7" height="2"/><rect class="cls-4" x="82" y="24" width="9" height="2"/><rect class="cls-5" x="87" y="30" width="8" height="2"/><rect class="cls-2" x="97" y="30" width="7" height="2"/><rect class="cls-4" x="106" y="30" width="9" height="2"/><rect class="cls-3" x="85" y="33" width="9" height="2"/><rect class="cls-5" x="101" y="33" width="9" height="2"/><rect class="cls-4" x="95" y="33" width="5" height="2"/><rect class="cls-4" x="80" y="27" width="7" height="2"/><rect class="cls-2" x="88" y="27" width="9" height="2"/><rect class="cls-3" x="104" y="27" width="9" height="2"/><rect class="cls-5" x="98" y="27" width="5" height="2"/><polygon class="cls-5" points="76 24 76 26 77 26 81 26 81 24 77 24 76 24"/><rect class="cls-3" x="81" y="30" width="5" height="2"/><rect class="cls-2" x="101" y="36" width="13" height="2"/><rect class="cls-3" x="92" y="36" width="7" height="2"/><rect class="cls-2" x="76" y="45" width="7" height="2"/><rect class="cls-4" x="81" y="36" width="9" height="2"/><rect class="cls-5" x="86" y="42" width="8" height="2"/><rect class="cls-2" x="96" y="42" width="7" height="2"/><rect class="cls-4" x="105" y="42" width="9" height="2"/><rect class="cls-3" x="84" y="45" width="9" height="2"/><rect class="cls-5" x="100" y="45" width="9" height="2"/><rect class="cls-4" x="94" y="45" width="5" height="2"/><rect class="cls-4" x="79" y="39" width="7" height="2"/><rect class="cls-2" x="87" y="39" width="9" height="2"/><rect class="cls-3" x="103" y="39" width="9" height="2"/><rect class="cls-5" x="97" y="39" width="5" height="2"/><polygon class="cls-5" points="80 36 78 36 75 36 75 38 78 38 80 38 80 36"/><rect class="cls-3" x="80" y="42" width="5" height="2"/><rect class="cls-2" x="102" y="48" width="13" height="2"/><rect class="cls-3" x="93" y="48" width="7" height="2"/><rect class="cls-2" x="77" y="57" width="7" height="2"/><rect class="cls-4" x="82" y="48" width="9" height="2"/><rect class="cls-5" x="87" y="54" width="8" height="2"/><rect class="cls-2" x="97" y="54" width="7" height="2"/><rect class="cls-4" x="106" y="54" width="9" height="2"/><rect class="cls-3" x="85" y="57" width="9" height="2"/><rect class="cls-5" x="101" y="57" width="9" height="2"/><rect class="cls-4" x="95" y="57" width="5" height="2"/><rect class="cls-4" x="80" y="51" width="7" height="2"/><rect class="cls-2" x="88" y="51" width="9" height="2"/><rect class="cls-3" x="104" y="51" width="9" height="2"/><rect class="cls-5" x="98" y="51" width="5" height="2"/><rect class="cls-5" x="76" y="48" width="5" height="2"/><rect class="cls-3" x="81" y="54" width="5" height="2"/><rect class="cls-2" x="104" width="13" height="2"/><rect class="cls-3" x="95" width="7" height="2"/><rect class="cls-2" x="79" y="9" width="7" height="2"/><rect class="cls-4" x="84" width="9" height="2"/><rect class="cls-5" x="89" y="6" width="8" height="2"/><rect class="cls-2" x="99" y="6" width="7" height="2"/><rect class="cls-4" x="108" y="6" width="9" height="2"/><rect class="cls-3" x="87" y="9" width="9" height="2"/><rect class="cls-5" x="103" y="9" width="9" height="2"/><rect class="cls-4" x="97" y="9" width="5" height="2"/><rect class="cls-4" x="82" y="3" width="7" height="2"/><rect class="cls-2" x="90" y="3" width="9" height="2"/><rect class="cls-3" x="106" y="3" width="9" height="2"/><rect class="cls-5" x="100" y="3" width="5" height="2"/><rect class="cls-5" x="78" width="5" height="2"/><rect class="cls-3" x="83" y="6" width="5" height="2"/></g><use width="104.91" height="88.24" transform="translate(6.73 0.5)" xlink:href="#rz-logo-symbol"/></symbol></defs><title>rz-codes-logo</title><use width="117" height="92" xlink:href="#rz-codes-logo"/></svg>